<svg width="52" height="36" viewBox="0 0 52 36" fill="none" xmlns="http://www.w3.org/2000/svg">
<path d="M20.784 12.944L20.848 12.848C20.976 12.7413 21.1147 12.688 21.264 12.688C21.4347 12.6667 21.584 12.6987 21.712 12.784L21.808 12.848L26 17.072L30.192 12.848C30.384 12.6773 30.5973 12.624 30.832 12.688C31.088 12.752 31.248 12.912 31.312 13.168C31.376 13.4027 31.3227 13.616 31.152 13.808L26.928 18L31.152 22.192C31.2587 22.2987 31.312 22.4373 31.312 22.608C31.3333 22.7573 31.3013 22.9067 31.216 23.056L31.152 23.152C31.024 23.2587 30.8747 23.3227 30.704 23.344C30.5547 23.344 30.416 23.3013 30.288 23.216L30.192 23.152L26 18.928L21.808 23.152C21.68 23.28 21.52 23.344 21.328 23.344C21.1573 23.344 20.9973 23.28 20.848 23.152C20.72 23.0027 20.656 22.8427 20.656 22.672C20.656 22.48 20.72 22.32 20.848 22.192L25.072 18L20.848 13.808C20.7413 13.7013 20.6773 13.5733 20.656 13.424C20.656 13.2533 20.6987 13.0933 20.784 12.944L20.848 12.848L20.784 12.944Z" fill="#2F2F2F" fill-opacity="0.9"/>
</svg>
