<svg width="52" height="36" viewBox="0 0 52 36" fill="none" xmlns="http://www.w3.org/2000/svg">
<path d="M20.016 14C20.016 13.4453 20.208 12.976 20.592 12.592C20.976 12.208 21.4453 12.016 22 12.016H30C30.5547 11.9947 31.024 12.1867 31.408 12.592C31.792 12.976 31.984 13.4453 31.984 14V22C31.984 22.5547 31.792 23.024 31.408 23.408C31.024 23.792 30.5547 23.984 30 23.984H22C21.4453 24.0053 20.976 23.824 20.592 23.44C20.208 23.0347 20.016 22.5547 20.016 22V14ZM22 13.328C21.808 13.328 21.648 13.392 21.52 13.52C21.392 13.648 21.328 13.808 21.328 14V22C21.328 22.192 21.392 22.352 21.52 22.48C21.648 22.608 21.808 22.672 22 22.672H30C30.192 22.672 30.352 22.608 30.48 22.48C30.608 22.352 30.672 22.192 30.672 22V14C30.672 13.808 30.608 13.648 30.48 13.52C30.352 13.392 30.192 13.328 30 13.328H22Z" fill="#2F2F2F" fill-opacity="0.9"/>
</svg>
