<svg width="89" height="88" viewBox="0 0 89 88" fill="none" xmlns="http://www.w3.org/2000/svg">
<g filter="url(#filter0_b_323_6281)">
<circle cx="44.5" cy="44" r="44" fill="#001F43" fill-opacity="0.34"/>
</g>
<path d="M29.125 64.2812V54.2812C30.9375 55.8021 32.9062 56.9479 35.0312 57.7188C37.1562 58.4688 39.3021 58.8438 41.4688 58.8438C42.7396 58.8438 43.8438 58.7292 44.7812 58.5C45.7396 58.2708 46.5312 57.9583 47.1562 57.5625C47.8021 57.1458 48.2812 56.6667 48.5938 56.125C48.9062 55.5625 49.0625 54.9583 49.0625 54.3125C49.0625 53.4375 48.8125 52.6562 48.3125 51.9688C47.8125 51.2812 47.125 50.6458 46.25 50.0625C45.3958 49.4792 44.375 48.9167 43.1875 48.375C42 47.8333 40.7188 47.2812 39.3438 46.7188C35.8438 45.2604 33.2292 43.4792 31.5 41.375C29.7917 39.2708 28.9375 36.7292 28.9375 33.75C28.9375 31.4167 29.4062 29.4167 30.3438 27.75C31.2812 26.0625 32.5521 24.6771 34.1562 23.5938C35.7812 22.5104 37.6562 21.7188 39.7812 21.2188C41.9062 20.6979 44.1562 20.4375 46.5312 20.4375C48.8646 20.4375 50.9271 20.5833 52.7188 20.875C54.5312 21.1458 56.1979 21.5729 57.7188 22.1562V31.5C56.9688 30.9792 56.1458 30.5208 55.25 30.125C54.375 29.7292 53.4688 29.4062 52.5312 29.1562C51.5938 28.8854 50.6562 28.6875 49.7188 28.5625C48.8021 28.4375 47.9271 28.375 47.0938 28.375C45.9479 28.375 44.9062 28.4896 43.9688 28.7188C43.0312 28.9271 42.2396 29.2292 41.5938 29.625C40.9479 30.0208 40.4479 30.5 40.0938 31.0625C39.7396 31.6042 39.5625 32.2188 39.5625 32.9062C39.5625 33.6562 39.7604 34.3333 40.1562 34.9375C40.5521 35.5208 41.1146 36.0833 41.8438 36.625C42.5729 37.1458 43.4583 37.6667 44.5 38.1875C45.5417 38.6875 46.7188 39.2083 48.0312 39.75C49.8229 40.5 51.4271 41.3021 52.8438 42.1562C54.2812 42.9896 55.5104 43.9375 56.5312 45C57.5521 46.0625 58.3333 47.2812 58.875 48.6562C59.4167 50.0104 59.6875 51.5938 59.6875 53.4062C59.6875 55.9062 59.2083 58.0104 58.25 59.7188C57.3125 61.4062 56.0312 62.7812 54.4062 63.8438C52.7812 64.8854 50.8854 65.6354 48.7188 66.0938C46.5729 66.5521 44.3021 66.7812 41.9062 66.7812C39.4479 66.7812 37.1042 66.5729 34.875 66.1562C32.6667 65.7396 30.75 65.1146 29.125 64.2812Z" fill="white"/>
<defs>
<filter id="filter0_b_323_6281" x="-87.5316" y="-88.0316" width="264.063" height="264.063" filterUnits="userSpaceOnUse" color-interpolation-filters="sRGB">
<feFlood flood-opacity="0" result="BackgroundImageFix"/>
<feGaussianBlur in="BackgroundImageFix" stdDeviation="44.0158"/>
<feComposite in2="SourceAlpha" operator="in" result="effect1_backgroundBlur_323_6281"/>
<feBlend mode="normal" in="SourceGraphic" in2="effect1_backgroundBlur_323_6281" result="shape"/>
</filter>
</defs>
</svg>
