<svg width="24" height="24" viewBox="0 0 24 24" fill="none" xmlns="http://www.w3.org/2000/svg">
<path fill-rule="evenodd" clip-rule="evenodd" d="M6 8C6 6.89542 6.89544 5.99999 8.00002 6L16 6.00009C17.1046 6.0001 18 6.89553 18 8.00009V16.0001C18 17.1047 17.1046 18.0001 16 18.0001L7.99998 18C6.89542 18 6 17.1046 6 16V8ZM8.00001 7C7.44772 6.99999 7 7.44771 7 8V16C7 16.5523 7.44771 17 7.99999 17L16 17.0001C16.5523 17.0001 17 16.5524 17 16.0001V8.00009C17 7.44781 16.5523 7.00009 16 7.00009L8.00001 7Z" fill="black"/>
</svg>
