<svg width="24" height="24" viewBox="0 0 24 24" fill="none" xmlns="http://www.w3.org/2000/svg">
<path fill-rule="evenodd" clip-rule="evenodd" d="M9 6.50012C9 6.22398 9.22386 6.00012 9.5 6.00012H14.5C16.433 6.00012 18 7.56713 18 9.50012V14.5C18 14.7761 17.7761 15 17.5 15C17.2239 15 17 14.7761 17 14.5V9.50012C17 8.11941 15.8807 7.00012 14.5 7.00012H9.5C9.22386 7.00012 9 6.77626 9 6.50012ZM6 10C6 8.89544 6.89544 8 8.00002 8.00002L14 8.00008C15.1046 8.0001 16 8.89552 16 10.0001V16C16 17.1046 15.1046 18 14 18L7.99998 17.9999C6.89542 17.9999 6 17.1045 6 15.9999V10ZM8.00001 9.00002C7.44772 9.00001 7 9.44773 7 10V15.9999C7 16.5522 7.44771 16.9999 7.99999 16.9999L14 17C14.5523 17 15 16.5523 15 16V10.0001C15 9.4478 14.5523 9.00009 14 9.00008L8.00001 9.00002Z" fill="black"/>
</svg>
